<?xml version="1.0" encoding="utf-8"?>
<!-- Generator: Adobe Illustrator 21.0.2, SVG Export Plug-In . SVG Version: 6.00 Build 0)  -->
<svg version="1.1" id="Calque_1" xmlns="http://www.w3.org/2000/svg" xmlns:xlink="http://www.w3.org/1999/xlink" x="0px" y="0px"
	 viewBox="0 0 15 10.1" style="enable-background:new 0 0 15 10.1;" xml:space="preserve">
<style type="text/css">
	.st0{clip-path:url(#SVGID_2_);fill:#1E201D;}
</style>
<g>
	<g>
		<defs>
			<rect id="SVGID_1_" width="15" height="10.4"/>
		</defs>
		<clipPath id="SVGID_2_">
			<use xlink:href="#SVGID_1_"  style="overflow:visible;"/>
		</clipPath>
		<path class="st0" d="M9.8,0.2c-0.2-0.2-0.5-0.2-0.7,0c-0.2,0.2-0.2,0.5,0,0.7l3.7,3.7H0.5C0.2,4.6,0,4.8,0,5.1
			c0,0.3,0.2,0.5,0.5,0.5h12.3L9.1,9.4c-0.2,0.2-0.2,0.5,0,0.7c0.2,0.2,0.5,0.2,0.7,0l4.6-4.6c0.2-0.2,0.2-0.5,0-0.7L9.8,0.2z
			 M9.8,0.2"/>
	</g>
</g>
</svg>
